<svg xmlns="http://www.w3.org/2000/svg" version="1.1" xmlns:xlink="http://www.w3.org/1999/xlink" xmlns:svgjs="http://svgjs.com/svgjs" width="1440" height="560" preserveAspectRatio="none" viewBox="0 0 1440 560"><g mask="url(&quot;#SvgjsMask1139&quot;)" fill="none"><rect width="1440" height="560" x="0" y="0" fill="url(#SvgjsLinearGradient1140)"></rect><path d="M284.607,392.958C298.171,392.129,308.608,382.478,315.497,370.765C322.507,358.846,326.935,344.456,320.25,332.352C313.39,319.932,298.788,315.284,284.607,314.836C269.412,314.355,252.985,317.134,244.834,329.967C236.205,343.552,237.808,361.38,246.401,374.988C254.454,387.742,269.551,393.878,284.607,392.958" fill="rgba(44, 229, 181, 0.63)" class="triangle-float2"></path><path d="M884.87 201.29 a95.01 95.01 0 1 0 190.02 0 a95.01 95.01 0 1 0 -190.02 0z" fill="rgba(44, 229, 181, 0.63)" class="triangle-float2"></path><path d="M319.0586930184874 494.68318584072165L457.04957389480774 436.1095320421441 398.4759200962302 298.1186511658238 260.4850392199099 356.69230496440133z" fill="rgba(44, 229, 181, 0.63)" class="triangle-float2"></path><path d="M-23.8466109100439 355.14905841278176L49.78656874073116 408.6466949013287 103.28420522927814 335.01351525055367 29.65102557850308 281.5158787620067z" fill="rgba(44, 229, 181, 0.63)" class="triangle-float3"></path><path d="M691.867,540.736C730.87,540.425,756.861,504.994,775.766,470.878C793.92,438.117,806.695,399.39,788.256,366.789C769.602,333.808,729.757,322.275,691.867,322.543C654.525,322.807,616.455,335.779,597.812,368.136C579.193,400.451,587.776,439.485,605.622,472.233C624.451,506.785,652.519,541.049,691.867,540.736" fill="rgba(44, 229, 181, 0.63)" class="triangle-float1"></path><path d="M103.66 380.4 a135.47 135.47 0 1 0 270.94 0 a135.47 135.47 0 1 0 -270.94 0z" fill="rgba(44, 229, 181, 0.63)" class="triangle-float2"></path><path d="M785.767,247.008C830.885,245.986,867.48,211.734,886.528,170.821C902.909,135.635,890.137,97.199,871.315,63.256C851.702,27.887,826.068,-7.503,785.767,-10.883C740.135,-14.71,694.248,6.933,671.139,46.466C647.84,86.325,653.866,135.489,676.777,175.572C699.881,215.992,739.222,248.062,785.767,247.008" fill="rgba(44, 229, 181, 0.63)" class="triangle-float1"></path><path d="M848.076,241.811C890.39,240.773,929.097,218.384,950.147,181.662C971.083,145.139,973.265,98.979,950.1,63.827C928.762,31.447,886.808,24.857,848.076,26.772C813.238,28.494,782.033,44.464,762.145,73.119C738.407,107.321,718.047,149.796,736.944,186.893C757.046,226.355,803.802,242.897,848.076,241.811" fill="rgba(44, 229, 181, 0.63)" class="triangle-float3"></path><path d="M767.6180766128253 575.3152740742223L845.3790265368614 613.2418234700127 883.3055759326517 535.4808735459767 805.5446260086158 497.55432415018635z" fill="rgba(44, 229, 181, 0.63)" class="triangle-float1"></path><path d="M245.78 283.62 a144.61 144.61 0 1 0 289.22 0 a144.61 144.61 0 1 0 -289.22 0z" fill="rgba(44, 229, 181, 0.63)" class="triangle-float1"></path><path d="M400.28 16.35 a116.48 116.48 0 1 0 232.96 0 a116.48 116.48 0 1 0 -232.96 0z" fill="rgba(44, 229, 181, 0.63)" class="triangle-float1"></path><path d="M239.36705026476923 183.3165977821913L235.06531475731379 101.23459456997979 114.09317769272425 148.72819943726876z" fill="rgba(44, 229, 181, 0.63)" class="triangle-float2"></path><path d="M1433.749,576.585C1462.171,574.49,1483.841,554.551,1498.647,530.2C1514.227,504.575,1526.214,473.947,1512.309,447.375C1497.616,419.297,1465.428,405.369,1433.749,406.187C1403.461,406.969,1377.908,425.524,1361.914,451.257C1344.805,478.783,1333.734,513.051,1349.851,541.17C1366.03,569.397,1401.302,578.977,1433.749,576.585" fill="rgba(44, 229, 181, 0.63)" class="triangle-float2"></path><path d="M1097.956,612.85C1122.639,611.478,1148.534,605.87,1161.117,584.591C1173.883,563.003,1167.848,536.716,1156.074,514.571C1143.349,490.637,1125.057,466.362,1097.956,465.794C1070.186,465.212,1049.845,488.283,1035.461,512.044C1020.373,536.968,1005.984,567.6,1021.336,592.362C1036.267,616.445,1069.664,614.423,1097.956,612.85" fill="rgba(44, 229, 181, 0.63)" class="triangle-float3"></path><path d="M195.898,448.927C210.79,448.71,226.674,445.751,234.444,433.044C242.484,419.896,240.083,403.066,231.947,389.976C224.266,377.618,210.429,371.767,195.898,371.027C179.649,370.199,161.657,372.254,152.869,385.947C143.546,400.474,145.62,419.943,155.357,434.195C164.05,446.919,180.49,449.151,195.898,448.927" fill="rgba(44, 229, 181, 0.63)" class="triangle-float3"></path><path d="M257.857,213.154C274.606,213.677,286.328,198.483,294.469,183.837C302.319,169.715,306.805,153.086,299.155,138.855C291.148,123.96,274.765,116.064,257.857,115.727C240.295,115.377,221.44,121.43,213.606,137.151C206.284,151.846,216.739,167.481,225,181.669C233.18,195.719,241.607,212.647,257.857,213.154" fill="rgba(44, 229, 181, 0.63)" class="triangle-float2"></path><path d="M601.83 515.2 a131.8 131.8 0 1 0 263.6 0 a131.8 131.8 0 1 0 -263.6 0z" fill="rgba(44, 229, 181, 0.63)" class="triangle-float2"></path><path d="M524.5347114251849 218.9588316818209L498.2428655062355 368.0672994461489 647.3513332705635 394.35914536509836 673.6431791895129 245.25067760077033z" fill="rgba(44, 229, 181, 0.63)" class="triangle-float1"></path><path d="M1092.673698896971 31.83562817901072L977.2775170151409 50.11258786195279 995.5544766980829 165.50876974378292 1110.9506585799131 147.23181006084087z" fill="rgba(44, 229, 181, 0.63)" class="triangle-float2"></path><path d="M491.94 414.37 a139.93 139.93 0 1 0 279.86 0 a139.93 139.93 0 1 0 -279.86 0z" fill="rgba(44, 229, 181, 0.63)" class="triangle-float2"></path></g><defs><mask id="SvgjsMask1139"><rect width="1440" height="560" fill="#ffffff"></rect></mask><linearGradient x1="15.28%" y1="-39.29%" x2="84.72%" y2="139.29%" gradientUnits="userSpaceOnUse" id="SvgjsLinearGradient1140"><stop stop-color="rgba(46, 112, 18, 1)" offset="0"></stop><stop stop-color="rgba(21, 114, 90, 1)" offset="1"></stop></linearGradient><style>
            @keyframes float1 {
                0%{transform: translate(0, 0)}
                50%{transform: translate(-10px, 0)}
                100%{transform: translate(0, 0)}
            }

            .triangle-float1 {
                animation: float1 5s infinite;
            }

            @keyframes float2 {
                0%{transform: translate(0, 0)}
                50%{transform: translate(-5px, -5px)}
                100%{transform: translate(0, 0)}
            }

            .triangle-float2 {
                animation: float2 4s infinite;
            }

            @keyframes float3 {
                0%{transform: translate(0, 0)}
                50%{transform: translate(0, -10px)}
                100%{transform: translate(0, 0)}
            }

            .triangle-float3 {
                animation: float3 6s infinite;
            }
        </style></defs></svg>