<svg xmlns="http://www.w3.org/2000/svg" version="1.1" xmlns:xlink="http://www.w3.org/1999/xlink" xmlns:svgjs="http://svgjs.com/svgjs" width="1920" height="1200" preserveAspectRatio="none" viewBox="0 0 1920 1200"><g mask="url(&quot;#SvgjsMask2612&quot;)" fill="none"><rect width="1920" height="1200" x="0" y="0" fill="rgba(21, 114, 90, 1)"></rect><path d="M409.72 1410.94C605.99 1378.96 702.13 904.99 1020.42 901.28 1338.71 897.57 1325.77 1051.28 1631.12 1051.28 1936.47 1051.28 2084.61 902.37 2241.82 901.28" stroke="rgba(51, 194, 108, 1)" stroke-width="2"></path><path d="M1210.93 1378.4C1371.85 1275.83 1184.83 813.7 1572.29 706.04 1959.75 598.38 2074.49 215.61 2295.02 190.04" stroke="rgba(51, 194, 108, 1)" stroke-width="2"></path><path d="M978.47 1403.41C1159.95 1310.06 1072.28 715.62 1411.47 711.38 1750.67 707.14 2048.39 1007.17 2277.48 1011.38" stroke="rgba(51, 194, 108, 1)" stroke-width="2"></path><path d="M696.57 1403.59C938.51 1320.2 1010.99 608.32 1339.3 606.89 1667.62 605.46 1776.63 1102.52 1982.04 1134.89" stroke="rgba(51, 194, 108, 1)" stroke-width="2"></path><path d="M108.91 1390.18C407.01 1347.49 502.1 691.33 1056.14 646.05 1610.18 600.77 1744.49 235.33 2003.37 226.05" stroke="rgba(51, 194, 108, 1)" stroke-width="2"></path></g><defs><mask id="SvgjsMask2612"><rect width="1920" height="1200" fill="#ffffff"></rect></mask></defs></svg>